<svg fill="#fff" xmlns="http://www.w3.org/2000/svg"><g filter="url(#filter0_b)"><path d="M-.5 90c14.05 0 27.96-2.33 40.94-6.85a110.18 110.18 0 0034.71-19.51 90.72 90.72 0 0023.2-29.2A77.78 77.78 0 00106.48 0H-.5v90z" fill="url(#paint0_linear)" fill-opacity=".03"/></g><path d="M41.6 46.27c-.56-1.55-1.71-2.33-3.45-2.33h-.55v9.57h.55c1.34 0 2.34-.53 2.98-1.59.54-.9.8-2.05.8-3.45 0-.83-.11-1.56-.33-2.2zM32.18 46.38c.56 1.56 1.7 2.33 3.44 2.33h.55v-9.57h-.55c-1.34 0-2.33.53-2.97 1.59-.54.9-.81 2.06-.81 3.45 0 .83.11 1.57.34 2.2zM23.04 23.85h7.3v2.54h-4.68v1.27h3.9v2.4h-3.9v1.28h4.69v2.54h-7.3V23.85zM34.02 23.84h9.45l-4.73 10.24-4.72-10.24zm4.72 8.97l3.9-8.44h-7.79l3.9 8.44zM47.24 23.85h7.3v2.54h-4.68v1.27h3.9v2.4h-3.9v1.28h4.68v2.54h-7.3V23.85zM59.04 33.86V23.84h.56l7 6.81v-6.8h.53v10.02h-8.1zM74.78 33.88v-7.5H71v-2.53h8.1v2.54H75.3v7.49h-.52zM27.35 41.14c.63 0 1.14.1 1.51.29a2.51 2.51 0 011.41 2.3c0 .46-.12.91-.37 1.3-.25.4-.6.73-1.02.95.52.18.97.51 1.3.95.36.43.54.97.54 1.52 0 .49-.13.97-.38 1.38-.25.41-.6.75-1.02.99-.22.12-.46.2-.7.26-.26.05-.6.08-1.04.08h-4.44V41.14h4.2zM44.24 50.44c-.76-.66-1.13-1.65-1.12-2.96h2.35c-.01.54.15.96.49 1.25.34.29.8.43 1.41.43.5 0 .9-.08 1.18-.24a.8.8 0 00.43-.75c0-.28-.14-.48-.44-.6a4.12 4.12 0 00-.87-.27 11.56 11.56 0 01-2.45-.62c-.52-.2-.98-.52-1.35-.94a2.47 2.47 0 01-.55-1.68c0-.69.19-1.28.55-1.76a3.3 3.3 0 011.46-1.09 5.4 5.4 0 012-.36c.87 0 1.63.17 2.27.5a3.53 3.53 0 011.83 2.39c.04.28.06.57.06.86h-2.35c0-.52-.14-.9-.42-1.15-.27-.24-.7-.37-1.3-.37-.46 0-.83.09-1.09.25a.75.75 0 00-.39.66c0 .3.18.54.52.68.43.17.87.3 1.31.39.87.17 1.54.34 2.03.5.49.16.92.45 1.26.84.35.4.53.97.53 1.7 0 .69-.2 1.28-.58 1.78-.38.5-.89.88-1.51 1.15-.65.27-1.34.4-2.04.4-1.4 0-2.47-.34-3.22-1zM57.5 51.16v-7.49h-3.8v-2.53h8.1v2.53h-3.78v7.5h-.52zM64.53 41.14h7.3v2.53h-4.68v1.27h3.89v2.4h-3.9v1.29h4.69v2.53h-7.3V41.14zM82.65 51.16h-7.71V41.14h3.9c.84 0 1.52.15 2.05.44a3.25 3.25 0 011.64 2.84c0 .73-.24 1.44-.7 2.01-.43.57-1.04.99-1.73 1.18l2.55 3.55zm-7.18-9.14v5.17h3.7l-3.7-5.17zm0 8.61h6.17l-2.1-2.92-.45.01h-3.62v2.91zm.38-8.96l3.91 5.47c.63-.12 1.2-.46 1.6-.96.42-.5.64-1.12.64-1.76 0-.5-.13-1-.4-1.44a2.56 2.56 0 00-1.09-1 3.72 3.72 0 00-1.65-.3h-3.01z" fill="#fff"/><defs><linearGradient id="paint0_linear" x1="125.61" y1="-33.88" x2="-22.68" y2="135.94" gradientUnits="userSpaceOnUse"><stop stop-color="#C4C4C4"/><stop offset="1" stop-color="#C4C4C4" stop-opacity="0"/></linearGradient><filter id="filter0_b" x="-30.5" y="-30" width="166.99" height="150" filterUnits="userSpaceOnUse" color-interpolation-filters="sRGB"><feFlood flood-opacity="0" result="BackgroundImageFix"/><feGaussianBlur in="BackgroundImage" stdDeviation="15"/><feComposite in2="SourceAlpha" operator="in" result="effect1_backgroundBlur"/><feBlend in="SourceGraphic" in2="effect1_backgroundBlur" result="shape"/></filter></defs></svg>