<svg width="179" height="151" fill="none" xmlns="http://www.w3.org/2000/svg"><path d="M70.13 77.63c-.94-2.6-2.87-3.9-5.79-3.9h-.92v16.05h.92c2.26 0 3.92-.89 5-2.66.9-1.52 1.36-3.45 1.36-5.8 0-1.4-.2-2.62-.57-3.69zM54.32 77.82c.94 2.6 2.87 3.9 5.79 3.9h.92V65.68h-.92c-2.26 0-3.92.89-5 2.67a11.2 11.2 0 00-1.35 5.79c0 1.4.19 2.62.56 3.7zM39 40.02h12.25v4.25H43.4v2.13h6.52v4.04H43.4v2.15h7.85v4.25H39V40.02zM57.41 40h15.86l-7.93 17.18L57.41 40zm7.93 15.06l6.55-14.17H58.82l6.52 14.17zM79.6 40.02h12.25v4.25H84v2.13h6.52v4.04H84v2.15h7.85v4.25H79.6V40.02zM99.4 56.82V40h.93l11.75 11.43V40h.9v16.82H99.38zM125.8 56.84V44.27h-6.35v-4.25h13.58v4.25h-6.35v12.57h-.87zM46.23 69.02c1.06 0 1.9.16 2.53.48a4.22 4.22 0 012.37 3.87c0 .77-.21 1.53-.63 2.19a4.46 4.46 0 01-1.71 1.58c.87.3 1.63.86 2.2 1.6.58.72.9 1.63.89 2.56 0 .81-.22 1.61-.64 2.3-.42.7-1 1.26-1.7 1.66-.38.2-.78.35-1.19.44-.43.1-1.01.14-1.74.14h-7.44V69.02h7.05zM74.56 84.62c-1.26-1.1-1.89-2.76-1.87-4.97h3.94c-.02.92.25 1.62.82 2.1.56.49 1.35.73 2.37.73.83 0 1.5-.14 1.98-.41.48-.27.72-.7.72-1.26 0-.46-.24-.8-.73-1.01a6.9 6.9 0 00-1.47-.45l-.89-.16c-1.1-.2-2.17-.5-3.21-.89a5.6 5.6 0 01-2.28-1.57 4.14 4.14 0 01-.91-2.8c0-1.16.3-2.15.91-2.96a5.53 5.53 0 012.46-1.83 9.06 9.06 0 013.34-.6c1.47 0 2.74.27 3.81.82a5.92 5.92 0 013.08 4.03c.07.47.1.95.1 1.43h-3.94c0-.87-.23-1.5-.7-1.92-.47-.4-1.2-.61-2.18-.61-.79 0-1.4.13-1.83.4-.44.28-.66.65-.66 1.12 0 .51.3.9.87 1.13.72.29 1.45.5 2.2.66 1.45.29 2.59.57 3.4.83.82.27 1.55.76 2.11 1.41.6.68.9 1.63.9 2.86 0 1.16-.32 2.16-.97 3a6.14 6.14 0 01-2.55 1.91 8.75 8.75 0 01-3.42.67c-2.33 0-4.13-.56-5.4-1.66zM96.8 85.84V73.27h-6.35v-4.25h13.58v4.25h-6.35v12.57h-.87zM108.6 69.02h12.25v4.25H113v2.13h6.52v4.04H113v2.15h7.85v4.25H108.6V69.02zM139 85.84h-12.93V69.02h6.55c1.4 0 2.55.25 3.43.75a5.23 5.23 0 012.03 1.98c.49.85.74 1.8.73 2.78a5.34 5.34 0 01-1.16 3.37 5.46 5.46 0 01-2.93 1.97l4.28 5.97zm-12.03-15.35v8.68h6.2l-6.2-8.68zm0 14.46h10.34l-3.53-4.91-.75.02h-6.06v4.89zm.62-15.04l6.58 9.19c1.05-.21 2-.79 2.68-1.62a4.48 4.48 0 001.06-2.95 4.6 4.6 0 00-.65-2.42 4.3 4.3 0 00-1.84-1.66 6.23 6.23 0 00-2.78-.54h-5.05z" fill="#fff"/></svg>