<svg width="239" height="201" fill="none" xmlns="http://www.w3.org/2000/svg"><path d="M81.92 91.28c-1.28-3.55-3.9-5.32-7.88-5.32h-1.26v21.89h1.26c3.07 0 5.34-1.22 6.8-3.64 1.24-2.07 1.86-4.7 1.86-7.9 0-1.9-.27-3.57-.78-5.03zM60.38 91.54c1.28 3.55 3.9 5.33 7.88 5.33h1.26V74.98h-1.26c-3.07 0-5.34 1.21-6.8 3.64-1.23 2.06-1.85 4.7-1.85 7.9 0 1.89.26 3.57.77 5.02zM39.5 40.03h16.7v5.8H45.5v2.9h8.89v5.5h-8.9v2.92h10.7v5.8H39.5V40.03zM64.6 40h21.6L75.4 63.42 64.6 40zm10.8 20.52l8.92-19.3H66.51l8.89 19.3zM94.83 40.03h16.7v5.8h-10.7v2.9h8.89v5.5h-8.9v2.92h10.7v5.8h-16.7V40.03zM121.8 62.92V40h1.29l16 15.58V40h1.22v22.92h-18.5zM157.8 62.95V45.82h-8.66v-5.8h18.5v5.8H159v17.13h-1.19zM49.35 79.55c1.45 0 2.6.22 3.45.66a5.75 5.75 0 013.23 5.27 5.5 5.5 0 01-.85 2.98 6.08 6.08 0 01-2.34 2.15 6.5 6.5 0 013 2.18 5.5 5.5 0 011.21 3.49c.01 1.1-.3 2.2-.87 3.14a6.35 6.35 0 01-2.32 2.26c-.5.27-1.05.47-1.62.6-.59.13-1.38.2-2.37.2H39.73V79.54h9.62zM87.96 100.8c-1.72-1.5-2.57-3.75-2.55-6.76h5.37c-.02 1.25.35 2.2 1.12 2.87a4.8 4.8 0 003.23.98 5.5 5.5 0 002.7-.56c.65-.37.98-.94.98-1.7 0-.65-.33-1.1-1-1.4a9.41 9.41 0 00-2-.6l-1.21-.22c-1.5-.28-2.96-.68-4.38-1.2a7.64 7.64 0 01-3.1-2.15 5.64 5.64 0 01-1.25-3.82c0-1.58.42-2.93 1.25-4.03a7.53 7.53 0 013.34-2.5c1.46-.55 3-.83 4.57-.81 2 0 3.72.37 5.18 1.12a8.07 8.07 0 013.45 3.39c.38.64.64 1.35.75 2.09.09.65.13 1.3.13 1.96h-5.36c0-1.19-.32-2.06-.96-2.62-.64-.56-1.62-.84-2.96-.84a4.7 4.7 0 00-2.5.56c-.6.37-.9.88-.9 1.52 0 .7.4 1.21 1.19 1.54.97.39 1.97.68 3 .9 1.97.39 3.52.77 4.63 1.13a6.47 6.47 0 012.88 1.93c.8.92 1.22 2.21 1.22 3.88a6.5 6.5 0 01-1.32 4.09 8.38 8.38 0 01-3.48 2.61c-1.47.62-3.06.92-4.66.91-3.18 0-5.63-.76-7.36-2.26zM118.28 102.47V85.35h-8.66v-5.8h18.5v5.8h-8.66v17.12h-1.18zM134.35 79.55h16.7v5.8h-10.7v2.9h8.89v5.5h-8.9v2.92h10.7v5.8h-16.69V79.55zM175.78 102.47h-17.62V79.55h8.93c1.9 0 3.47.34 4.67 1.02a7.12 7.12 0 012.77 2.7c.66 1.15 1 2.46.99 3.79a7.26 7.26 0 01-1.58 4.6 7.44 7.44 0 01-3.99 2.68l5.83 8.13zm-16.4-20.91v11.82h8.46l-8.46-11.82zm0 19.7h14.1l-4.81-6.7-1.02.04h-8.27v6.65zm.86-20.5l8.95 12.52a6.3 6.3 0 003.66-2.2 6.11 6.11 0 001.45-4.02c.01-1.16-.3-2.3-.9-3.3a5.84 5.84 0 00-2.5-2.27 8.5 8.5 0 00-3.78-.72h-6.88z" fill="#fff"/></svg>